# xmcd CD database file
#
# Track frame offsets:
#	150
#	16815
#	28060
#	43710
#	63390
#	78250
#	99100
#	114682
#	133672
#	144307
#	158997
#	177670
#	191172
#
# Disc length: 3006 seconds
#
# Revision: 0
# Processed by: cddbd v1.5.2PL0 Copyright (c) Steve Scherf et al.
# Submitted via: CDex 1.70beta2
#
DISCID=ad0bbc0d
DTITLE=David Morgan - How Long (Must I Wait for You)
DYEAR=1997
DGENRE=Blues
TTITLE0=Big Boss Man
TTITLE1=Black Mountain Rag
TTITLE2=There Goes My Baby
TTITLE3=Love Her with a Feeling
TTITLE4=How Long (Must I Wait for You)
TTITLE5=Don't Think Twice
TTITLE6=Fireflies
TTITLE7=If I Told You
TTITLE8=Charlie's Ramble
TTITLE9=Arlena
TTITLE10=Love Is Here to Stay
TTITLE11=Seminole Blues
TTITLE12=Spanish Fandango/Both Sides Now/Wheels
EXTD=YEAR: 1997
EXTT0=
EXTT1=
EXTT2=
EXTT3=
EXTT4=
EXTT5=
EXTT6=
EXTT7=
EXTT8=
EXTT9=
EXTT10=
EXTT11=
EXTT12=
PLAYORDER=
